HIERARCHY
ROOT Hips
{
	OFFSET 0.000000 103.266502 0.000000
	CHANNELS 6 Xposition Yposition Zposition Xrotation Yrotation Zrotation 
	JOINT Spine
	{
		OFFSET -0.002400 12.777504 0.315300
		CHANNELS 3 Xrotation Yrotation Zrotation
		JOINT Spine1
		{
			OFFSET -0.002067 5.816869 0.032633
			CHANNELS 3 Xrotation Yrotation Zrotation
			JOINT Spine1_split
			{
				OFFSET -0.002067 5.816869 0.032633
				CHANNELS 3 Xrotation Yrotation Zrotation
				JOINT Spine2
				{
					OFFSET -0.002067 5.816869 0.032633
					CHANNELS 3 Xrotation Yrotation Zrotation
					JOINT Neck
					{
						OFFSET -0.003700 21.199493 -0.826900
						CHANNELS 3 Xrotation Yrotation Zrotation
						JOINT Head
						{
							OFFSET 0.000000 20.442200 4.834800
							CHANNELS 3 Xrotation Yrotation Zrotation
							JOINT HeadTop_End
							{
								OFFSET 0.000000 34.668396 4.968400
								CHANNELS 3 Xrotation Yrotation Zrotation
								End Site
								{
									OFFSET 0.000000 0.000000 0.000000
								}
							}
						}
					}
					JOINT LeftShoulder
					{
						OFFSET 3.288150 8.794197 -1.372250
						CHANNELS 3 Xrotation Yrotation Zrotation
						JOINT LeftShoulder_split
						{
							OFFSET 3.288150 8.794197 -1.372250
							CHANNELS 3 Xrotation Yrotation Zrotation
							JOINT LeftArm
							{
								OFFSET 11.953299 -2.279007 -0.146200
								CHANNELS 3 Xrotation Yrotation Zrotation
								JOINT LeftForeArm
								{
									OFFSET 18.448900 0.000000 0.000000
									CHANNELS 3 Xrotation Yrotation Zrotation
									JOINT LeftHand
									{
										OFFSET 29.527798 0.000000 0.000000
										CHANNELS 3 Xrotation Yrotation Zrotation
										JOINT LeftHandThumb1
										{
											OFFSET 10.739754 -2.369614 9.225399
											CHANNELS 3 Xrotation Yrotation Zrotation
											JOINT LeftHandThumb2
											{
												OFFSET 4.926170 -2.844131 2.844125
												CHANNELS 3 Xrotation Yrotation Zrotation
												JOINT LeftHandThumb3
												{
													OFFSET 4.614891 -2.664413 2.664409
													CHANNELS 3 Xrotation Yrotation Zrotation
													JOINT LeftHandThumb4
													{
														OFFSET 4.432465 -2.559082 2.559083
														CHANNELS 3 Xrotation Yrotation Zrotation
														End Site
														{
															OFFSET 0.000000 0.000000 0.000000
														}
													}
												}
											}
										}
										JOINT LeftHandIndex1
										{
											OFFSET 26.467674 0.187653 6.405298
											CHANNELS 3 Xrotation Yrotation Zrotation
											JOINT LeftHandIndex2
											{
												OFFSET 8.792900 0.000000 0.000000
												CHANNELS 3 Xrotation Yrotation Zrotation
												JOINT LeftHandIndex3
												{
													OFFSET 10.075203 0.000000 0.000000
													CHANNELS 3 Xrotation Yrotation Zrotation
													End Site
													{
														OFFSET 0.000000 0.000000 0.000000
													}
												}
											}
										}
										JOINT LeftHandMiddle1
										{
											OFFSET 25.764404 0.000000 0.000000
											CHANNELS 3 Xrotation Yrotation Zrotation
											JOINT LeftHandMiddle2
											{
												OFFSET 9.393974 0.000000 0.000000
												CHANNELS 3 Xrotation Yrotation Zrotation
												JOINT LeftHandMiddle3
												{
													OFFSET 10.771950 0.000000 0.000000
													CHANNELS 3 Xrotation Yrotation Zrotation
													End Site
													{
														OFFSET 0.000000 0.000000 0.000000
													}
												}
											}
										}
										JOINT LeftHandRing1
										{
											OFFSET 24.660927 0.144547 -6.225808
											CHANNELS 3 Xrotation Yrotation Zrotation
											JOINT LeftHandRing2
											{
												OFFSET 9.393799 0.000000 0.000000
												CHANNELS 3 Xrotation Yrotation Zrotation
												JOINT LeftHandRing3
												{
													OFFSET 9.928497 0.000000 0.000000
													CHANNELS 3 Xrotation Yrotation Zrotation
													End Site
													{
														OFFSET 0.000000 0.000000 0.000000
													}
												}
											}
										}
										JOINT LeftHandPinky1
										{
											OFFSET 23.655350 0.125290 -12.815412
											CHANNELS 3 Xrotation Yrotation Zrotation
											JOINT LeftHandPinky2
											{
												OFFSET 8.425102 0.000000 0.000000
												CHANNELS 3 Xrotation Yrotation Zrotation
												JOINT LeftHandPinky3
												{
													OFFSET 8.147003 0.000000 0.000000
													CHANNELS 3 Xrotation Yrotation Zrotation
													End Site
													{
														OFFSET 0.000000 0.000000 0.000000
													}
												}
											}
										}
									}
								}
							}
						}
					}
					JOINT RightShoulder
					{
						OFFSET -3.249400 8.794197 -1.372250
						CHANNELS 3 Xrotation Yrotation Zrotation
						JOINT RightShoulder_split
						{
							OFFSET -3.249400 8.794197 -1.372250
							CHANNELS 3 Xrotation Yrotation Zrotation
							JOINT RightArm
							{
								OFFSET -11.953299 -2.279007 -0.146200
								CHANNELS 3 Xrotation Yrotation Zrotation
								JOINT RightForeArm
								{
									OFFSET -18.448900 0.000000 0.000000
									CHANNELS 3 Xrotation Yrotation Zrotation
									JOINT RightHand
									{
										OFFSET -29.527802 0.000000 0.000000
										CHANNELS 3 Xrotation Yrotation Zrotation
										JOINT RightHandThumb1
										{
											OFFSET -10.739754 -2.369614 9.225399
											CHANNELS 3 Xrotation Yrotation Zrotation
											JOINT RightHandThumb2
											{
												OFFSET -4.926170 -2.844131 2.844125
												CHANNELS 3 Xrotation Yrotation Zrotation
												JOINT RightHandThumb3
												{
													OFFSET -4.614891 -2.664413 2.664409
													CHANNELS 3 Xrotation Yrotation Zrotation
													JOINT RightHandThumb4
													{
														OFFSET -4.432465 -2.559082 2.559083
														CHANNELS 3 Xrotation Yrotation Zrotation
														End Site
														{
															OFFSET 0.000000 0.000000 0.000000
														}
													}
												}
											}
										}
										JOINT RightHandIndex1
										{
											OFFSET -26.467674 0.187653 6.405298
											CHANNELS 3 Xrotation Yrotation Zrotation
											JOINT RightHandIndex2
											{
												OFFSET -8.792900 0.000000 0.000000
												CHANNELS 3 Xrotation Yrotation Zrotation
												JOINT RightHandIndex3
												{
													OFFSET -10.075203 0.000000 0.000000
													CHANNELS 3 Xrotation Yrotation Zrotation
													End Site
													{
														OFFSET 0.000000 0.000000 0.000000
													}
												}
											}
										}
										JOINT RightHandMiddle1
										{
											OFFSET -25.764404 0.000000 0.000000
											CHANNELS 3 Xrotation Yrotation Zrotation
											JOINT RightHandMiddle2
											{
												OFFSET -9.393974 0.000000 0.000000
												CHANNELS 3 Xrotation Yrotation Zrotation
												JOINT RightHandMiddle3
												{
													OFFSET -10.771950 0.000000 0.000000
													CHANNELS 3 Xrotation Yrotation Zrotation
													End Site
													{
														OFFSET 0.000000 0.000000 0.000000
													}
												}
											}
										}
										JOINT RightHandRing1
										{
											OFFSET -24.660927 0.144547 -6.225808
											CHANNELS 3 Xrotation Yrotation Zrotation
											JOINT RightHandRing2
											{
												OFFSET -9.393799 0.000000 0.000000
												CHANNELS 3 Xrotation Yrotation Zrotation
												JOINT RightHandRing3
												{
													OFFSET -9.928497 0.000000 0.000000
													CHANNELS 3 Xrotation Yrotation Zrotation
													End Site
													{
														OFFSET 0.000000 0.000000 0.000000
													}
												}
											}
										}
										JOINT RightHandPinky1
										{
											OFFSET -23.655350 0.125290 -12.815412
											CHANNELS 3 Xrotation Yrotation Zrotation
											JOINT RightHandPinky2
											{
												OFFSET -8.425102 0.000000 0.000000
												CHANNELS 3 Xrotation Yrotation Zrotation
												JOINT RightHandPinky3
												{
													OFFSET -8.147003 0.000000 0.000000
													CHANNELS 3 Xrotation Yrotation Zrotation
													End Site
													{
														OFFSET 0.000000 0.000000 0.000000
													}
												}
											}
										}
									}
								}
							}
						}
					}
				}
			}
		}
	}
	JOINT LeftUpLeg
	{
		OFFSET 11.394100 -6.187798 -0.413800
		CHANNELS 3 Xrotation Yrotation Zrotation
		JOINT LeftLeg
		{
			OFFSET 0.430247 -32.302673 3.732800
			CHANNELS 3 Xrotation Yrotation Zrotation
			JOINT LeftFoot
			{
				OFFSET -0.430247 -48.264931 -6.423300
				CHANNELS 3 Xrotation Yrotation Zrotation
				JOINT LeftToeBase
				{
					OFFSET 4.230900 -16.068199 23.438400
					CHANNELS 3 Xrotation Yrotation Zrotation
					JOINT LeftToe_End
					{
						OFFSET 4.510700 0.695400 19.974600
						CHANNELS 3 Xrotation Yrotation Zrotation
						End Site
						{
							OFFSET 0.000000 0.000000 0.000000
						}
					}
				}
			}
		}
	}
	JOINT RightUpLeg
	{
		OFFSET -11.333700 -6.187798 -0.413800
		CHANNELS 3 Xrotation Yrotation Zrotation
		JOINT RightLeg
		{
			OFFSET -0.430392 -32.302628 3.733000
			CHANNELS 3 Xrotation Yrotation Zrotation
			JOINT RightFoot
			{
				OFFSET 0.430392 -48.264973 -6.423500
				CHANNELS 3 Xrotation Yrotation Zrotation
				JOINT RightToeBase
				{
					OFFSET -4.230900 -16.068199 23.438400
					CHANNELS 3 Xrotation Yrotation Zrotation
					JOINT RightToe_End
					{
						OFFSET -4.510700 0.695400 19.974600
						CHANNELS 3 Xrotation Yrotation Zrotation
						End Site
						{
							OFFSET 0.000000 0.000000 0.000000
						}
					}
				}
			}
		}
	}
}
MOTION
Frames: 6
Frame Time: 0.016667
0.547317 125.984947 0.874231 3.742558 -37.301849 3.249143 31.627406 -4.672821 -10.219598 14.129379 0.964741 -3.082678 0.000000 0.000000 0.000000 14.083558 0.916929 -3.297929 -8.677488 21.443476 -12.816592 -25.381084 13.620604 5.249198 -0.000002 -0.000000 0.000000 11.474075 -16.374147 4.408435 0.000000 0.000000 0.000000 -62.668789 -4.844738 -3.758216 45.767639 -24.019392 29.511116 -12.970307 31.805927 18.858156 40.109934 -15.297079 -0.360438 5.639823 28.097621 11.338681 1.088581 40.896769 22.734025 0.000000 0.000002 -0.000000 6.882241 2.840071 -61.140411 8.247931 7.639987 -89.897946 0.000000 0.000003 0.000000 -2.345512 4.688838 -62.655333 8.754112 9.897117 -87.051123 -0.000001 0.000003 -0.000002 -9.042528 10.045668 -60.766308 8.524092 9.508819 -66.893083 -0.000003 0.000001 -0.000002 -17.946947 14.754959 -51.485802 8.868412 8.667038 -84.811982 -0.000000 0.000003 -0.000005 18.189212 24.092147 -9.603801 0.000000 0.000000 0.000000 -33.453146 6.374208 2.980963 -41.939202 39.311133 29.275891 -2.634151 7.017178 -19.613208 -1.525702 -5.490521 13.054246 1.517219 -22.702495 -8.022585 -6.615008 18.786679 8.531384 -0.000001 0.000001 0.000002 1.275682 4.855656 -8.441559 0.521786 0.316511 6.397936 0.000001 -0.000003 -0.000000 0.863999 -5.171148 -11.645881 1.544687 -3.773580 21.274074 -0.000000 0.000002 0.000001 1.777563 -11.827274 -9.453289 1.762680 -2.960309 20.651842 -0.000001 -0.000000 -0.000000 2.612845 -21.378204 -4.080149 5.314407 -1.204967 -0.000010 -0.000000 0.000001 0.000003 -86.846634 -23.068429 27.373943 65.509751 1.337371 7.685634 19.640281 -1.240620 2.629362 0.031753 -0.007714 0.000016 0.000000 0.000000 -0.000003 -148.384302 -42.576271 -12.631952 122.542172 11.984348 -14.066085 36.496204 6.069797 33.795284 0.004140 0.000167 -0.000325 -0.000000 -0.000000 0.000000 
0.549498 125.980812 0.862306 3.768344 -37.401132 3.301650 31.633225 -4.689086 -10.225629 14.124491 0.962689 -3.082690 0.000000 0.000000 0.000000 14.081433 0.915141 -3.297783 -8.636869 21.467478 -12.828425 -25.291721 13.718662 5.212692 0.000004 0.000000 0.000000 11.372214 -16.443324 3.967052 0.000000 0.000000 0.000000 -62.208072 -4.571386 -3.790338 45.710467 -23.896279 29.381227 -13.152803 31.668336 18.894689 40.109931 -15.297079 -0.360438 5.639826 28.097619 11.338684 1.088584 40.896769 22.734023 -0.000000 -0.000002 0.000000 6.882239 2.840070 -61.140411 8.247932 7.639990 -89.897946 -0.000004 -0.000002 -0.000001 -2.345516 4.688836 -62.655327 8.754111 9.897117 -87.051116 0.000001 0.000001 -0.000000 -9.042529 10.045671 -60.766315 8.524091 9.508820 -66.893076 0.000002 0.000001 -0.000001 -17.946947 14.754962 -51.485805 8.868409 8.667039 -84.811975 0.000001 0.000001 -0.000002 18.029184 24.259181 -9.213514 0.000000 0.000000 0.000000 -32.985552 6.584520 2.975913 -41.769779 39.073682 29.004695 -2.558815 7.327789 -19.065141 -1.525702 -5.490519 13.054245 1.517215 -22.702494 -8.022586 -6.615010 18.786679 8.531386 0.000001 0.000001 -0.000000 1.264161 4.823518 -8.200518 0.528600 0.186453 7.355371 0.000000 -0.000003 -0.000001 0.874208 -5.218029 -11.333226 1.587300 -3.878971 22.059945 -0.000000 -0.000000 -0.000001 1.813560 -11.822578 -9.179917 1.792575 -3.024124 21.110296 0.000001 0.000000 0.000002 2.626222 -21.407368 -3.836575 5.351738 -1.276964 0.651230 -0.000001 0.000000 0.000001 -86.839339 -23.055234 27.392967 65.494609 1.287808 7.657461 19.658958 -1.128175 2.524668 0.026816 -0.007767 0.000019 0.000002 0.000000 -0.000001 -148.120903 -42.598664 -12.629887 122.435020 12.059905 -14.073198 36.303811 6.001907 33.702124 0.004713 0.000152 -0.000356 0.000000 0.000000 0.000002 
0.549918 125.978325 0.846667 3.795231 -37.487848 3.356081 31.625647 -4.705290 -10.228486 14.121963 0.959993 -3.082253 0.000000 0.000000 0.000000 14.068813 0.912807 -3.297118 -8.610276 21.493197 -12.821330 -25.195736 13.750093 5.199517 0.000001 -0.000001 -0.000000 11.267118 -16.494263 3.552182 0.000000 0.000000 0.000000 -61.836400 -4.277146 -3.867880 45.655310 -23.778494 29.256671 -13.315553 31.475083 18.907558 40.109938 -15.297076 -0.360444 5.639825 28.097619 11.338682 1.088585 40.896762 22.734022 0.000001 0.000001 -0.000000 6.882243 2.840073 -61.140418 8.247932 7.639992 -89.897946 -0.000002 0.000000 -0.000001 -2.345514 4.688841 -62.655333 8.754113 9.897116 -87.051116 0.000002 0.000001 -0.000002 -9.042528 10.045670 -60.766315 8.524093 9.508822 -66.893083 -0.000000 0.000000 0.000000 -17.946945 14.754964 -51.485795 8.868412 8.667038 -84.811975 -0.000001 -0.000000 -0.000002 17.871443 24.380039 -8.840627 0.000000 0.000000 0.000000 -32.509651 6.730321 2.966676 -41.608088 38.845150 28.745705 -2.194469 7.735460 -18.572666 -1.525702 -5.490522 13.054242 1.517219 -22.702495 -8.022581 -6.615008 18.786678 8.531378 0.000001 0.000001 0.000003 1.252747 4.791382 -7.959534 0.537551 0.056539 8.312882 0.000000 -0.000001 0.000001 0.884690 -5.264787 -11.020560 1.631340 -3.983800 22.846008 0.000000 -0.000002 0.000001 1.849490 -11.817698 -8.906596 1.822948 -3.087677 21.568785 -0.000000 0.000000 0.000002 2.639510 -21.436434 -3.593013 5.390297 -1.348509 1.586683 0.000000 -0.000000 -0.000002 -86.819901 -23.019773 27.403704 65.470676 1.265657 7.643929 19.588588 -1.045830 2.479666 0.022377 -0.007755 0.000042 0.000000 0.000000 -0.000002 -147.827915 -42.623642 -12.621560 122.328879 12.161371 -14.080934 36.074621 5.924194 33.608595 0.005012 0.000204 -0.000313 0.000000 -0.000000 0.000002 
0.549981 125.974335 0.834299 3.823131 -37.553005 3.408603 31.612615 -4.719551 -10.228772 14.106483 0.954765 -3.080998 0.000000 0.000000 0.000000 14.049153 0.908816 -3.295748 -8.563395 21.515695 -12.819790 -25.070503 13.794744 5.150474 0.000002 0.000000 -0.000001 11.178851 -16.526068 3.162659 0.000000 0.000000 0.000000 -61.569443 -3.861278 -3.799272 45.619718 -23.701718 29.176946 -13.445427 31.206363 18.883644 40.109934 -15.297079 -0.360439 5.639826 28.097621 11.338683 1.088583 40.896762 22.734023 0.000001 0.000002 -0.000001 6.882242 2.840071 -61.140411 8.247932 7.639992 -89.897946 -0.000002 0.000000 -0.000000 -2.345513 4.688837 -62.655333 8.754110 9.897112 -87.051116 -0.000002 0.000001 -0.000003 -9.042531 10.045666 -60.766315 8.524091 9.508819 -66.893083 0.000000 -0.000002 0.000001 -17.946949 14.754959 -51.485805 8.868415 8.667036 -84.811975 0.000002 0.000001 -0.000002 17.715200 24.468458 -8.495859 0.000000 0.000000 0.000000 -32.128858 6.751246 2.910652 -41.451404 38.621390 28.494028 -1.622675 7.766575 -18.155247 -1.525702 -5.490523 13.054243 1.517222 -22.702490 -8.022582 -6.615013 18.786678 8.531378 -0.000000 0.000001 0.000002 1.241615 4.759409 -7.720695 0.548545 -0.072029 9.261823 -0.000000 -0.000002 0.000002 0.895325 -5.311141 -10.710614 1.676468 -4.087033 23.625244 -0.000000 0.000003 0.000001 1.885092 -11.812656 -8.635659 1.853581 -3.150462 22.023197 0.000000 -0.000000 -0.000001 2.652737 -21.465169 -3.351520 5.429580 -1.418819 2.513890 -0.000000 0.000001 0.000001 -86.785968 -22.991412 27.419429 65.421792 1.259064 7.639065 19.569754 -1.006610 2.400508 0.025240 -0.007692 0.000006 -0.000000 -0.000001 -0.000000 -147.520270 -42.635277 -12.595140 122.211113 12.219943 -14.089486 35.859579 5.855218 33.550162 0.005132 0.000158 -0.000363 0.000000 -0.000000 -0.000002 
0.548074 125.971489 0.820668 3.852120 -37.620962 3.464081 31.596476 -4.733122 -10.225378 14.084174 0.946259 -3.078781 0.000000 0.000000 0.000000 14.024741 0.902260 -3.293464 -8.559984 21.556437 -12.797784 -24.976438 13.886574 5.176315 0.000001 -0.000000 -0.000000 11.087260 -16.530113 2.819710 0.000000 0.000000 0.000000 -61.258847 -3.422797 -3.756269 45.583542 -23.623784 29.096165 -13.538120 30.843741 18.809801 40.109941 -15.297079 -0.360435 5.639828 28.097621 11.338683 1.088584 40.896765 22.734022 0.000000 0.000000 -0.000000 6.882241 2.840066 -61.140411 8.247931 7.639988 -89.897953 -0.000001 -0.000000 -0.000002 -2.345512 4.688836 -62.655333 8.754108 9.897114 -87.051123 -0.000000 -0.000000 0.000002 -9.042527 10.045665 -60.766315 8.524091 9.508819 -66.893076 -0.000000 0.000001 0.000001 -17.946945 14.754957 -51.485802 8.868412 8.667039 -84.811975 0.000002 0.000003 -0.000000 17.522814 24.569661 -8.065059 0.000000 0.000000 0.000000 -31.766581 6.787542 2.888679 -41.306266 38.411765 28.260082 -1.098194 7.921626 -17.721038 -1.525703 -5.490521 13.054248 1.517216 -22.702494 -8.022578 -6.615009 18.786678 8.531391 0.000000 0.000003 0.000000 1.230787 4.727991 -7.486126 0.561462 -0.198105 10.193776 0.000001 -0.000003 -0.000002 0.906031 -5.356565 -10.406171 1.722099 -4.187848 24.390565 0.000000 -0.000003 0.000002 1.920050 -11.807657 -8.369622 1.884133 -3.211822 22.469570 -0.000001 -0.000000 0.000005 2.665661 -21.493350 -3.114395 5.469326 -1.487196 3.424517 -0.000001 -0.000000 0.000001 -86.737214 -22.944294 27.436081 65.364364 1.238755 7.626840 19.501764 -0.951406 2.317150 0.013805 -0.007796 -0.000004 -0.000001 0.000000 -0.000002 -147.203581 -42.661037 -12.570164 122.099002 12.311008 -14.097796 35.640398 5.776700 33.465147 0.005050 0.000167 -0.000342 0.000001 -0.000000 0.000000 
0.544309 125.966736 0.810664 3.881586 -37.657770 3.516199 31.576081 -4.744938 -10.218291 14.055858 0.934641 -3.075680 0.000000 0.000000 0.000000 13.995684 0.893351 -3.290322 -8.515427 21.594012 -12.772921 -24.789200 13.982333 5.119375 -0.000001 0.000000 -0.000001 10.988286 -16.524917 2.425655 0.000000 0.000000 0.000000 -60.975257 -2.925627 -3.672639 45.549043 -23.549466 29.019561 -13.594839 30.394011 18.690627 40.109934 -15.297078 -0.360443 5.639825 28.097616 11.338683 1.088579 40.896765 22.734027 0.000000 0.000000 0.000000 6.882240 2.840071 -61.140418 8.247930 7.639988 -89.897946 -0.000002 -0.000000 -0.000000 -2.345512 4.688838 -62.655333 8.754106 9.897120 -87.051116 0.000001 0.000000 0.000001 -9.042528 10.045671 -60.766315 8.524091 9.508818 -66.893076 -0.000000 0.000003 -0.000001 -17.946945 14.754964 -51.485799 8.868413 8.667036 -84.811975 -0.000000 -0.000000 -0.000000 17.350885 24.652289 -7.676956 0.000000 0.000000 0.000000 -31.331041 6.716265 2.813170 -41.168521 38.210756 28.037385 -0.900747 7.967418 -17.218579 -1.525702 -5.490521 13.054246 1.517217 -22.702490 -8.022586 -6.615013 18.786678 8.531385 0.000000 0.000000 -0.000001 1.220394 4.697399 -7.258026 0.575934 -0.320538 11.100125 -0.000001 0.000003 0.000000 0.916628 -5.400736 -10.110124 1.767801 -4.285321 25.135178 -0.000001 -0.000001 -0.000004 1.954014 -11.802673 -8.110903 1.914313 -3.271337 22.903743 -0.000001 -0.000001 0.000001 2.678202 -21.520792 -2.883850 5.509033 -1.553049 4.310244 -0.000000 -0.000001 0.000002 -86.681678 -22.906843 27.446106 65.285571 1.271597 7.643569 19.482425 -0.986696 2.280696 -0.010170 -0.007784 0.000013 -0.000001 0.000000 -0.000000 -146.881579 -42.656454 -12.540728 121.981632 12.385041 -14.107016 35.409258 5.714073 33.444786 0.004848 0.000190 -0.000353 -0.000000 -0.000000 -0.000002 
